HIERARCHY
ROOT Hips
{
     OFFSET 29.82960 100.00400 6.26971
     CHANNELS 6 Xposition Yposition Zposition Zrotation Xrotation Yrotation
     JOINT Spine
     {
          OFFSET 0.00000 11.89050 -0.00000
          CHANNELS 3 Zrotation Xrotation Yrotation
          JOINT Spine1
          {
               OFFSET 0.00000 25.65740 0.12766
               CHANNELS 3 Zrotation Xrotation Yrotation
               JOINT HEad
               {
                    OFFSET 0.00000 8.73416 0.01134
                    CHANNELS 3 Zrotation Xrotation Yrotation
                    End Site
                    {
                         OFFSET -0.29000 12.77420 2.51395
                    }
               }
               JOINT LeftShoulder1
               {
                    OFFSET 8.99000 -0.36225 -0.22000
                    CHANNELS 3 Zrotation Xrotation Yrotation
                    JOINT LeftArm
                    {
                         OFFSET 10.28270 -0.00338 0.32212
                         CHANNELS 3 Zrotation Xrotation Yrotation
                         JOINT LeftForeArm
                         {
                              OFFSET 32.76690 0.09914 -1.42434
                              CHANNELS 3 Zrotation Xrotation Yrotation
                              JOINT LeftHand
                              {
                                   OFFSET 27.56430 0.08536 1.02216
                                   CHANNELS 3 Zrotation Xrotation Yrotation
                                   End Site
                                   {
                                        OFFSET 16.74430 -0.60000 1.50291
                                   }
                              }
                         }
                    }
               }
               JOINT RightShoulder
               {
                    OFFSET -8.99000 -0.36225 -0.22000
                    CHANNELS 3 Zrotation Xrotation Yrotation
                    JOINT RightArm
                    {
                         OFFSET -10.28270 -0.00338 0.32212
                         CHANNELS 3 Zrotation Xrotation Yrotation
                         JOINT RightForeArm
                         {
                              OFFSET -32.89710 0.09914 -1.42434
                              CHANNELS 3 Zrotation Xrotation Yrotation
                              JOINT RightHand
                              {
                                   OFFSET -27.49210 0.08536 1.02216
                                   CHANNELS 3 Zrotation Xrotation Yrotation
                                   End Site
                                   {
                                        OFFSET -16.63120 -0.60000 1.50291
                                   }
                              }
                         }
                    }
               }
          }
     }
     JOINT LeftUpLeg
     {
          OFFSET 8.94580 -8.66707 0.10165
          CHANNELS 3 Zrotation Xrotation Yrotation
          JOINT LeftLeg
          {
               OFFSET -0.00000 -44.42270 1.37270
               CHANNELS 3 Zrotation Xrotation Yrotation
               JOINT LeftFoot
               {
                    OFFSET -0.25355 -42.09240 -1.46059
                    CHANNELS 3 Zrotation Xrotation Yrotation
                    JOINT LeftToes
                    {
                         OFFSET -0.04000 -4.41509 8.49910
                         CHANNELS 3 Zrotation Xrotation Yrotation
                         End Site
                         {
                              OFFSET 0.08000 -0.04745 9.77979
                         }
                    }
               }
          }
     }
     JOINT RightUpLeg
     {
          OFFSET -8.94580 -8.66707 0.10165
          CHANNELS 3 Zrotation Xrotation Yrotation
          JOINT RightLeg
          {
               OFFSET -0.00000 -44.42270 1.37270
               CHANNELS 3 Zrotation Xrotation Yrotation
               JOINT RightFoot
               {
                    OFFSET 0.25355 -42.09240 -1.46059
                    CHANNELS 3 Zrotation Xrotation Yrotation
                    JOINT RightToes
                    {
                         OFFSET 0.04000 -4.41509 8.49910
                         CHANNELS 3 Zrotation Xrotation Yrotation
                         End Site
                         {
                              OFFSET -0.08000 -0.13745 9.77979
                         }
                    }
               }
          }
     }
}
MOTION
Frames: 19
Frame Time: 0.01667
29.82960 100.00400 6.26971 -2.59912 -2.02111 -29.01460 1.92781 5.46591 1.18996 1.47994 11.06040 2.32951 9.94869 9.79289 0.86798 -0.00000 -0.00000 0.00000 -82.48100 -33.01120 -75.85930 -17.38030 30.41070 -83.16450 5.55594 9.67997 -0.87718 21.54090 1.92517 5.77359 58.55530 -32.93810 71.23590 20.74630 39.16680 87.21360 -5.55712 9.68432 0.87760 6.63103 -9.50667 -3.02042 6.46434 9.82277 -27.59480 -12.31350 -10.94730 -0.30853 -0.56276 8.00862 1.20517 0.56735 -6.07844 -2.65932 -12.10650 12.94240 30.44440 10.04430 -24.36560 1.23582 15.66130 14.18390 -8.68988 
30.42440 100.10500 6.44079 -2.64383 -1.74235 -30.16870 1.72037 5.50115 1.23105 1.54097 11.11640 2.39966 10.54950 9.62942 0.02392 -0.00000 -0.00000 0.00000 -83.44390 -32.82740 -76.60940 -17.62340 30.81230 -83.56500 5.55594 9.67997 -0.87718 21.11370 1.88220 5.71696 60.16460 -32.33040 72.27250 21.30830 39.81090 87.22200 -5.55712 9.68432 0.87760 6.66075 -9.51170 -3.03041 6.13012 9.79057 -26.36760 -11.29400 -10.28140 -0.21578 -0.55437 7.04415 1.29753 0.23442 -6.16282 -2.82270 -11.92880 12.24790 29.70090 11.33730 -25.37090 1.53282 16.81930 15.41200 -9.03715 
30.97170 100.20800 6.61318 -2.70430 -1.51880 -31.24850 1.52142 5.54375 1.29456 1.59403 11.18900 2.51877 10.94040 9.48287 -0.86508 -0.00000 -0.00000 0.00000 -84.17200 -32.54700 -77.24280 -17.80230 31.15910 -84.00620 5.55594 9.67997 -0.87718 20.67080 1.83888 5.66131 61.60170 -31.83460 73.11260 21.86580 40.44760 87.24350 -5.55712 9.68432 0.87760 6.65370 -9.44759 -3.24022 5.84573 9.75388 -25.10210 -10.29150 -9.75564 -0.14754 -0.61306 6.37535 1.59655 -0.19594 -6.28519 -2.99127 -11.48820 12.01450 27.77470 12.23580 -25.86590 1.73213 17.30720 15.92810 -9.18439 
31.46460 100.30400 6.78575 -2.78434 -1.37834 -32.23230 1.35074 5.60166 1.37789 1.62725 11.29420 2.68169 11.15240 9.35968 -1.78711 -0.00000 -0.00000 0.00000 -84.65180 -32.18570 -77.77750 -17.92780 31.44750 -84.42470 5.55594 9.67997 -0.87718 20.26130 1.79967 5.61155 62.75650 -31.39770 73.82010 22.28020 40.93600 87.28240 -5.55712 9.68432 0.87760 6.62647 -9.31713 -3.48530 5.61618 9.74938 -23.95030 -9.54603 -9.52306 -0.11538 -0.72273 6.33771 1.99621 -0.74700 -6.49883 -3.23624 -10.82050 12.53200 24.76190 12.70350 -25.58790 1.77877 16.66020 15.49230 -8.70478 
31.89940 100.38800 6.96154 -2.86271 -1.32167 -33.09970 1.20554 5.66375 1.47434 1.63218 11.40830 2.87363 11.28640 9.29056 -2.74839 -0.00000 -0.00000 0.00000 -84.86310 -31.78980 -78.19020 -18.01780 31.68030 -84.78070 5.55594 9.67997 -0.87718 19.91430 1.76565 5.56438 63.59830 -30.98160 74.41570 22.50890 41.22820 87.32900 -5.55712 9.68432 0.87760 6.57572 -9.15416 -3.63914 5.43792 9.80442 -23.02680 -9.19245 -9.66602 -0.12029 -0.87044 7.09127 2.40350 -1.44285 -6.84500 -3.61938 -10.02040 14.00590 21.14820 12.70920 -24.59490 1.66778 14.98850 14.26740 -7.54486 
32.27300 100.45600 7.14703 -2.90646 -1.32579 -33.83650 1.07764 5.70561 1.57463 1.60127 11.48190 3.07463 11.43330 9.30969 -3.73082 -0.00000 -0.00000 0.00000 -84.77430 -31.41520 -78.42280 -18.07500 31.85710 -85.08030 5.55594 9.67997 -0.87718 19.65700 1.73895 5.52168 64.14410 -30.59740 74.88580 22.59890 41.36420 87.36400 -5.55712 9.68432 0.87760 6.48678 -9.00542 -3.63911 5.30298 9.92572 -22.37270 -9.19651 -10.13200 -0.15551 -1.02976 8.50264 2.72490 -2.28208 -7.30709 -4.12798 -9.24820 16.46050 17.72130 12.41800 -23.44900 1.49733 13.29910 13.01010 -6.34415 
32.57760 100.49400 7.34155 -2.88827 -1.37100 -34.43240 0.94333 5.71381 1.66636 1.52959 11.47960 3.26356 11.63950 9.41448 -4.71431 -0.00000 -0.00000 0.00000 -84.36810 -31.10210 -78.42880 -18.08130 31.97190 -85.36130 5.55594 9.67997 -0.87718 19.52200 1.72542 5.50105 64.40080 -30.30020 75.21200 22.61780 41.40520 87.37870 -5.55712 9.68432 0.87760 6.34273 -8.93477 -3.49747 5.19931 10.16510 -21.96310 -9.38211 -10.76230 -0.20826 -1.15358 10.11990 2.87480 -3.21804 -7.80790 -4.66488 -8.68789 19.72580 15.18580 12.09410 -22.72440 1.37398 12.47790 12.43540 -5.69575 
32.81050 100.49200 7.53968 -2.79857 -1.45763 -34.88330 0.77816 5.68781 1.74183 1.41945 11.39950 3.42747 11.92730 9.56052 -5.73471 -0.00000 -0.00000 0.00000 -83.67820 -30.85690 -78.22020 -18.01370 32.02110 -85.66320 5.55594 9.67997 -0.87718 19.50770 1.72809 5.51770 64.40070 -30.15950 75.39510 22.63850 41.41680 87.37510 -5.55712 9.68432 0.87760 6.12703 -8.96841 -3.28556 5.11398 10.55210 -21.73030 -9.56291 -11.35470 -0.26003 -1.19387 11.38570 2.80679 -4.18888 -8.20222 -5.06866 -8.42352 23.42220 13.75390 11.82430 -22.43110 1.30676 12.38490 12.46380 -5.50735 
32.98140 100.43600 7.74152 -2.67061 -1.57699 -35.19900 0.63675 5.62648 1.80591 1.28705 11.25770 3.56864 12.29130 9.71609 -6.87335 -0.00000 -0.00000 0.00000 -82.78510 -30.66400 -77.86310 -17.86840 32.01130 -86.00820 5.55594 9.67997 -0.87718 19.57320 1.74304 5.56609 64.21160 -30.21820 75.44830 22.73010 41.45500 87.37610 -5.55712 9.68432 0.87760 5.85093 -9.15009 -3.07999 5.06745 11.20490 -21.63180 -9.66916 -11.90030 -0.30720 -1.15524 12.10910 2.58023 -5.13959 -8.37101 -5.15956 -8.33840 27.17860 13.13510 11.46690 -22.18280 1.23404 12.20130 12.41870 -5.25771 
33.08920 100.36000 7.92862 -2.50933 -1.73033 -35.38410 0.46881 5.54533 1.86781 1.13863 11.07940 3.70085 12.67410 9.87589 -8.18890 -0.00000 -0.00000 0.00000 -81.78180 -30.51190 -77.43500 -17.67150 31.95790 -86.38870 5.55594 9.67997 -0.87718 19.66810 1.76190 5.62292 63.89470 -30.46820 75.37220 22.92110 41.53780 87.43120 -5.55712 9.68432 0.87760 5.50553 -9.34286 -2.91086 5.11366 11.85790 -21.66010 -9.83730 -12.38910 -0.35348 -1.10303 12.57470 2.35544 -6.07468 -8.21244 -4.82499 -8.16266 30.62300 12.77990 10.86700 -21.60940 1.10113 11.37460 11.79460 -4.63742 
33.13920 100.27500 8.08888 -2.35546 -1.90118 -35.45290 0.30075 5.45475 1.93497 0.99515 10.88430 3.83775 13.00970 10.00110 -9.68662 -0.00000 -0.00000 0.00000 -80.75370 -30.40230 -76.99710 -17.46550 31.87900 -86.77430 5.55594 9.67997 -0.87718 19.75350 1.77655 5.66311 63.47700 -30.85880 75.15130 23.19080 41.63850 87.58430 -5.55712 9.68432 0.87760 5.13456 -9.51000 -2.79606 5.26965 12.46520 -21.80660 -10.12050 -12.89400 -0.40801 -1.08429 13.02860 2.23803 -6.97546 -7.72912 -4.09188 -7.67432 33.62340 12.23110 9.97938 -20.72790 0.91379 10.09120 10.67310 -3.83716 
33.13760 100.19100 8.21394 -2.23172 -2.07652 -35.42610 0.15503 5.36206 2.00931 0.86864 10.68660 3.98639 13.27690 10.01070 -11.32520 -0.00000 -0.00000 0.00000 -79.77100 -30.34560 -76.59370 -17.28530 31.79270 -87.13660 5.55594 9.67997 -0.87718 19.82150 1.78370 5.67447 62.95330 -31.32570 74.77590 23.49720 41.71340 87.84380 -5.55712 9.68432 0.87760 4.80764 -9.63287 -2.78243 5.43287 12.99170 -21.95890 -10.39120 -13.30140 -0.45607 -1.06814 13.26530 2.15872 -7.81964 -6.96170 -3.11347 -6.82231 36.10730 11.21840 8.85928 -19.69830 0.70479 8.79412 9.42017 -3.15316 
33.09280 100.11400 8.29912 -2.13325 -2.24290 -35.33250 0.03873 5.26842 2.08728 0.75151 10.48940 4.14545 13.47510 9.85884 -13.00800 -0.00000 -0.00000 0.00000 -78.87310 -30.36730 -76.24880 -17.14770 31.71480 -87.46540 5.55594 9.67997 -0.87718 19.91010 1.78821 5.66746 62.31790 -31.81470 74.27310 23.80110 41.74160 88.18460 -5.55712 9.68432 0.87760 4.57469 -9.71935 -2.88817 5.48514 13.41820 -22.00720 -10.47610 -13.46190 -0.47444 -1.00265 12.99500 1.99635 -8.58947 -5.96752 -2.07436 -5.71052 37.99500 9.60922 7.64986 -18.55020 0.50123 7.58594 8.17409 -2.59999 
33.01520 100.04300 8.33957 -2.03431 -2.38050 -35.20320 -0.05205 5.16800 2.16171 0.62900 10.28230 4.30473 13.59190 9.58217 -14.60520 -0.00000 -0.00000 0.00000 -78.07440 -30.50150 -75.96370 -17.05440 31.65570 -87.76420 5.55594 9.67997 -0.87718 20.05460 1.79719 5.66343 61.62060 -32.27640 73.73080 24.07530 41.74310 88.55770 -5.55712 9.68432 0.87760 4.41875 -9.81065 -3.03848 5.45014 13.75940 -21.99620 -10.37990 -13.43020 -0.46669 -0.90553 12.39490 1.77590 -9.28216 -4.82075 -1.11932 -4.50474 39.22180 7.38519 6.53337 -17.19890 0.32101 6.34503 6.85880 -2.06317 
32.91480 99.97630 8.33016 -1.90469 -2.46822 -35.06060 -0.11648 5.05452 2.22657 0.50022 10.05400 4.45373 13.62840 9.25890 -16.02560 -0.00000 -0.00000 0.00000 -77.39880 -30.75670 -75.73700 -16.99640 31.61640 -88.03250 5.55594 9.67997 -0.87718 20.20920 1.80785 5.66383 60.98650 -32.65080 73.26810 24.30740 41.75260 88.90710 -5.55712 9.68432 0.87760 4.28662 -9.96268 -3.13094 5.44084 14.05350 -22.06160 -10.26950 -13.40250 -0.45861 -0.84327 11.94230 1.63932 -9.90691 -3.59865 -0.35136 -3.36612 39.76780 4.68023 5.67249 -15.59270 0.17603 5.08723 5.50237 -1.53541 
32.79910 99.90740 8.26695 -1.73242 -2.50006 -34.92620 -0.15161 4.92826 2.28556 0.37495 9.80513 4.59803 13.63650 8.95274 -17.24690 -0.00000 -0.00000 0.00000 -76.87600 -31.10050 -75.57500 -16.95700 31.58930 -88.25870 5.55594 9.67997 -0.87718 20.27830 1.80933 5.64937 60.53960 -32.88540 72.95610 24.49950 41.78490 89.20050 -5.55712 9.68432 0.87760 4.15297 -10.20530 -3.11324 5.51648 14.33350 -22.27270 -10.29110 -13.48790 -0.46707 -0.84584 11.86310 1.65686 -10.47400 -2.34726 0.17915 -2.40497 39.64360 1.75190 5.20898 -13.74080 0.06902 3.95048 4.26125 -1.06676 
32.67020 99.83010 8.14495 -1.52361 -2.49220 -34.83190 -0.17044 4.79532 2.35633 0.24681 9.54563 4.76579 13.69840 8.69649 -18.28380 -0.00000 -0.00000 0.00000 -76.50410 -31.48120 -75.48440 -16.91860 31.56350 -88.42990 5.55594 9.67997 -0.87718 20.23220 1.79772 5.61167 60.30030 -32.97680 72.77640 24.66410 41.83170 89.44190 -5.55712 9.68432 0.87760 4.02970 -10.52670 -2.97289 5.65109 14.60630 -22.58810 -10.44270 -13.60480 -0.48520 -0.87124 11.90010 1.73104 -11.00110 -1.07648 0.50651 -1.63426 38.87470 -1.12068 5.27267 -11.70400 -0.00981 2.99186 3.19763 -0.68733 
32.52550 99.73740 7.95746 -1.28029 -2.46996 -34.80750 -0.20074 4.66295 2.45940 0.08773 9.28573 4.98944 13.86050 8.48817 -19.14790 -0.00000 -0.00000 0.00000 -76.25950 -31.85170 -75.47780 -16.87780 31.53420 -88.53300 5.55594 9.67997 -0.87718 20.14620 1.78212 5.56808 60.18150 -32.97210 72.66470 24.81710 41.87930 89.64750 -5.55712 9.68432 0.87760 3.93588 -10.90190 -2.72275 5.77415 14.86160 -22.90510 -10.58000 -13.57050 -0.48946 -0.84653 11.55910 1.69617 -11.51280 0.21973 0.71175 -1.00726 37.49140 -3.68253 5.95896 -9.64695 -0.08034 2.10844 2.11481 -0.49462 
32.36010 99.62080 7.69869 -0.98778 -2.45606 -34.86350 -0.27985 4.53845 2.60328 -0.13194 9.03379 5.27744 14.10090 8.30460 -19.82310 -0.00000 -0.00000 0.00000 -76.13190 -32.19070 -75.57730 -16.84880 31.50950 -88.55330 5.55594 9.67997 -0.87718 20.14660 1.77962 5.55676 60.05750 -32.92600 72.58660 24.96570 41.91820 89.80760 -5.55712 9.68432 0.87760 3.86935 -11.32700 -2.40410 5.82523 15.11620 -23.13560 -10.54870 -13.30140 -0.46401 -0.74779 10.60300 1.50096 -12.03140 1.54453 0.85159 -0.47843 35.54690 -5.76068 7.24240 -7.86680 -0.15990 1.07013 0.62456 -0.63885 
